<svg width="155" height="30" viewBox="0 0 155 30" fill="none" xmlns="http://www.w3.org/2000/svg">
<g clip-path="url(#clip0_4_265)">
<path d="M7.96647 14.6391L16.265 5.58614C16.5682 5.25536 16.7364 4.82296 16.7364 4.37425V1.79703C16.7364 0.138304 14.6781 -0.631465 13.5897 0.620218L0.440674 15.7415C-0.364244 16.6672 -0.0231208 18.1096 1.11116 18.5767L6.85926 20.9436C8.6183 21.6679 10.1464 19.5155 8.88253 18.0937L7.94808 17.0425C7.33711 16.3551 7.34504 15.317 7.96647 14.6391Z" fill="white"/>
<path d="M18.3326 15.2324L10.0341 24.2853C9.73086 24.6161 9.56268 25.0485 9.56268 25.4972V28.0744C9.56268 29.7332 11.621 30.5029 12.7094 29.2512L25.8584 14.1299C26.6633 13.2042 26.3222 11.7618 25.1879 11.2948L19.4398 8.92787C17.6808 8.20358 16.1527 10.3559 17.4165 11.7777L18.351 12.829C18.962 13.5163 18.9541 14.5544 18.3326 15.2324Z" fill="white"/>
<path d="M40.5881 10.3037H43.7292V21.85H40.5881V10.3037ZM35.5139 8.9057H48.8034V11.7017H35.5139V8.9057Z" fill="white"/>
<path d="M52.5775 14.6185H57.4791C58.1004 14.6185 58.5893 14.4746 58.9461 14.187C59.3142 13.8993 59.4984 13.4966 59.4984 12.9788C59.4984 12.4611 59.3142 12.0584 58.9461 11.7707C58.5893 11.483 58.1004 11.3392 57.4791 11.3392H52.1288L53.544 9.76865V21.85H50.3856V8.9057H57.8761C58.831 8.9057 59.671 9.07829 60.3959 9.42347C61.1208 9.75713 61.6844 10.2289 62.0873 10.8387C62.4899 11.4485 62.6914 12.1619 62.6914 12.9788C62.6914 13.7728 62.4899 14.4746 62.0873 15.0845C61.6844 15.6943 61.1208 16.1718 60.3959 16.517C59.671 16.8506 58.831 17.0175 57.8761 17.0175H52.5775V14.6185ZM54.7176 15.7921H58.2903L63.0883 21.85H59.4121L54.7176 15.7921Z" fill="white"/>
<path d="M71.7192 22.1262C70.2004 22.1262 68.8714 21.8443 67.7323 21.2805C66.5932 20.7167 65.7014 19.9285 65.0572 18.916C64.4242 17.9034 64.1079 16.7241 64.1079 15.3779C64.1079 14.0316 64.4242 12.8523 65.0572 11.8397C65.7014 10.8272 66.5932 10.0391 67.7323 9.47525C68.8714 8.91144 70.2004 8.62955 71.7192 8.62955C73.2264 8.62955 74.5497 8.91144 75.6888 9.47525C76.8392 10.0391 77.731 10.8272 78.3639 11.8397C78.9966 12.8523 79.3132 14.0316 79.3132 15.3779C79.3132 16.7241 78.9966 17.9034 78.3639 18.916C77.731 19.9285 76.8392 20.7167 75.6888 21.2805C74.5497 21.8443 73.2264 22.1262 71.7192 22.1262ZM71.7192 19.3129C72.6279 19.3129 73.4106 19.1576 74.0664 18.8469C74.7223 18.5248 75.2284 18.0703 75.5852 17.4835C75.9533 16.8851 76.1375 16.1833 76.1375 15.3779C76.1375 14.5724 75.9533 13.8763 75.5852 13.2895C75.2284 12.6912 74.7223 12.2367 74.0664 11.926C73.4106 11.6039 72.6279 11.4428 71.7192 11.4428C70.8101 11.4428 70.0218 11.6039 69.3547 11.926C68.6988 12.2367 68.1924 12.6912 67.8359 13.2895C67.4791 13.8763 67.3009 14.5724 67.3009 15.3779C67.3009 16.1833 67.4791 16.8851 67.8359 17.4835C68.1924 18.0703 68.6988 18.5248 69.3547 18.8469C70.0218 19.1576 70.8101 19.3129 71.7192 19.3129Z" fill="white"/>
<path d="M93.2583 19.7272L92.2227 19.8997V8.9057H95.2776V21.85H91.308L83.2825 10.856L84.318 10.6834V21.85H81.2632V8.9057H85.3536L93.2583 19.7272Z" fill="white"/>
<path d="M108.653 14.187V16.5687H98.7805V14.187H108.653ZM100.593 20.78L99.2637 19.2612H109.222V21.85H97.4343V8.9057H109.136V11.4946H99.2637L100.593 9.97576V20.78Z" fill="white"/>
<path d="M113.557 14.6185H118.459C119.08 14.6185 119.569 14.4746 119.926 14.187C120.294 13.8993 120.478 13.4966 120.478 12.9788C120.478 12.4611 120.294 12.0584 119.926 11.7707C119.569 11.483 119.08 11.3392 118.459 11.3392H113.109L114.524 9.76865V21.85H111.365V8.9057H118.856C119.811 8.9057 120.651 9.07829 121.376 9.42347C122.101 9.75713 122.664 10.2289 123.067 10.8387C123.47 11.4485 123.671 12.1619 123.671 12.9788C123.671 13.7728 123.47 14.4746 123.067 15.0845C122.664 15.6943 122.101 16.1718 121.376 16.517C120.651 16.8506 119.811 17.0175 118.856 17.0175H113.557V14.6185ZM115.697 15.7921H119.27L124.068 21.85H120.392L115.697 15.7921Z" fill="white"/>
<path d="M138.86 16.2408C138.837 17.0232 138.682 17.7711 138.394 18.4845C138.107 19.1864 137.692 19.8134 137.152 20.3657C136.611 20.9065 135.944 21.338 135.15 21.6602C134.356 21.9708 133.43 22.1262 132.371 22.1262C131.359 22.1262 130.409 21.9766 129.523 21.6774C128.649 21.3668 127.878 20.9238 127.211 20.3485C126.555 19.7732 126.037 19.0713 125.657 18.2429C125.289 17.4029 125.105 16.4479 125.105 15.3779C125.105 14.3078 125.289 13.3585 125.657 12.5301C126.037 11.6902 126.56 10.9825 127.228 10.4072C127.907 9.83195 128.695 9.39469 129.592 9.09555C130.501 8.78488 131.485 8.62955 132.544 8.62955C133.936 8.62955 135.144 8.84818 136.168 9.2854C137.192 9.72262 138.015 10.3209 138.636 11.0803C139.269 11.8397 139.666 12.7084 139.827 13.6865H136.651C136.536 13.1917 136.289 12.766 135.909 12.4093C135.541 12.0526 135.069 11.7764 134.494 11.5809C133.93 11.3853 133.28 11.2875 132.544 11.2875C131.669 11.2875 130.91 11.4485 130.265 11.7707C129.632 12.0814 129.144 12.5416 128.798 13.1514C128.453 13.7498 128.281 14.4919 128.281 15.3779C128.281 16.2638 128.465 17.0175 128.833 17.6388C129.201 18.2601 129.725 18.7319 130.403 19.054C131.082 19.3762 131.888 19.5373 132.82 19.5373C133.717 19.5373 134.505 19.3992 135.184 19.1231C135.863 18.8469 136.404 18.4557 136.807 17.9495C137.209 17.4432 137.44 16.8334 137.497 16.12L138.86 16.2408ZM133.199 17.518V15.257H139.948V21.85H137.704L137.273 16.655L137.911 17.518H133.199Z" fill="white"/>
<path d="M145.545 21.85V15.585H148.686V21.85H145.545ZM139.47 8.9057H142.956L147.84 15.1017H146.373L151.258 8.9057H154.744L148.134 17.2936L146.097 17.3281L139.47 8.9057Z" fill="white"/>
</g>
<defs>
<clipPath id="clip0_4_265">
<rect width="155" height="29.8715" fill="white"/>
</clipPath>
</defs>
</svg>
