<svg width="49" height="24" viewBox="0 0 49 24" fill="none" xmlns="http://www.w3.org/2000/svg">
<g clip-path="url(#clip0_17_501)">
<path d="M27.2587 18.517V23.7779H24.5646V20.133L21.4945 20.493C20.8202 20.5711 20.5238 20.7939 20.5238 21.2031C20.5238 21.8031 21.0868 22.056 22.2945 22.056C23.0305 22.056 23.8461 21.9455 24.5661 21.7551L23.1718 23.7455C22.6084 23.872 22.0594 23.9345 21.4804 23.9345C19.0369 23.9345 17.6427 22.9554 17.6427 21.2175C17.6427 19.685 18.7387 18.88 21.2297 18.5951L24.5204 18.2095C24.3425 17.245 23.6206 16.8255 22.1851 16.8255C20.8377 16.8255 19.3497 17.173 18.0187 17.821L18.4419 15.4667C19.6792 14.9452 21.0895 14.6766 22.5143 14.6766C25.648 14.6766 27.2613 15.9886 27.2613 18.5147L27.2583 18.5166L27.2587 18.517ZM3.02399 11.9295L0.0792236 23.7775H3.02399L4.48532 17.824L7.01865 20.8865H10.0891L12.6225 17.824L14.0838 23.7775H17.0286L14.0838 11.928L8.55313 18.552L3.02246 11.928L3.02399 11.9295ZM14.0838 0.0800171L8.55313 6.70402L3.02399 0.0800171L0.0792236 11.9295H3.02399L4.48532 5.97602L7.01865 9.03849H10.0891L12.6225 5.97602L14.0838 11.9295H17.0286L14.0838 0.0800171ZM34.339 18.4065L31.9581 18.0591C31.363 17.965 31.1284 17.7745 31.1284 17.4431C31.1284 16.9059 31.7074 16.669 32.8987 16.669C34.2777 16.669 35.515 16.9535 36.816 17.5695L36.4876 15.248C35.4373 14.869 34.2316 14.68 32.9783 14.68C30.0495 14.68 28.4503 15.7071 28.4503 17.5551C28.4503 18.9935 29.3276 19.7985 31.1916 20.0831L33.6049 20.4465C34.2156 20.541 34.4663 20.7779 34.4663 21.157C34.4663 21.6941 33.9032 21.9471 32.7592 21.9471C31.2552 21.9471 29.6259 21.584 28.2945 20.936L28.5611 23.2575C29.7051 23.685 31.1935 23.9375 32.5878 23.9375C35.5958 23.9375 37.1619 22.8785 37.1619 20.9985C37.1619 19.4975 36.2846 18.6911 34.3428 18.408L34.339 18.4065ZM38.2095 12.9867V23.7772H40.9032V12.9871L38.2095 12.9867ZM44.051 18.9276L47.7969 14.8347H44.4446L40.9032 19.0686L44.6792 23.7756H48.0792L44.051 18.9261V18.9276ZM37.8335 9.36954C37.8335 11.1067 39.2278 12.0857 41.6712 12.0857C42.2503 12.0857 42.7992 12.0221 43.3627 11.8972L44.7569 9.90668C44.0369 10.0956 43.2213 10.2076 42.4853 10.2076C41.2792 10.2076 40.7147 9.95468 40.7147 9.35468C40.7147 8.94364 41.0129 8.72268 41.6857 8.64459L44.7554 8.28459V11.9292H47.4495V6.66821C47.4495 4.14059 45.8358 2.83011 42.7025 2.83011C41.2762 2.83011 39.8674 3.09868 38.6297 3.62059L38.2061 5.97411C39.5375 5.32611 41.0255 4.97868 42.3726 4.97868C43.8084 4.97868 44.5303 5.39773 44.7078 6.36268L41.4175 6.74859C38.9265 7.03316 37.8301 7.83811 37.8301 9.37068L37.8335 9.36954ZM30.2987 8.80116C30.2987 10.9821 31.552 12.0876 34.027 12.0876C35.0137 12.0876 35.8297 11.9292 36.6118 11.5657L36.9558 9.18059C36.2038 9.63773 35.4358 9.87468 34.6682 9.87468C33.5086 9.87468 32.9912 9.40116 32.9912 8.34211V5.18211H37.0796V2.98668H32.9908V1.12306L27.8678 3.85602V5.18249H30.2952V8.80002L30.2983 8.80154L30.2987 8.80116ZM27.651 7.80611V8.34364H20.3695C20.6979 9.43811 21.6735 9.93868 23.4057 9.93868C24.7847 9.93868 26.0697 9.65411 27.2122 9.10211L26.8838 11.4092C25.8335 11.8511 24.5025 12.0892 23.1394 12.0892C19.5204 12.0892 17.547 10.4777 17.547 7.49259C17.547 4.50668 19.5524 2.83164 22.6541 2.83164C25.7558 2.83164 27.6518 4.64916 27.6518 7.80764L27.6499 7.80611H27.651ZM20.3345 6.51049H24.9387C24.696 5.46249 23.8979 4.91506 22.6225 4.91506C21.3467 4.91506 20.5901 5.44802 20.3345 6.51049Z" fill="white"/>
</g>
<defs>
<clipPath id="clip0_17_501">
<rect width="48.381" height="24" fill="white"/>
</clipPath>
</defs>
</svg>
